<svg xmlns="http://www.w3.org/2000/svg" xmlns:xlink="http://www.w3.org/1999/xlink" contentStyleType="text/css" data-diagram-type="SEQUENCE" height="404px" preserveAspectRatio="none" style="width:259px;height:404px;" version="1.1" viewBox="0 0 259 404" width="259px" zoomAndPan="magnify"><?plantuml 1.2026.6?><defs/><g><rect fill="none" height="177.6016" style="stroke:currentColor;stroke-width:1.5;" width="233.4341" x="10" y="127.4297"/><g class="participant-lifeline" data-entity-uid="part1" data-qualified-name="Client" data-source-line="6" id="part1-lifeline"><g><title>Client</title><rect fill="currentColor" fill-opacity="0.00000" height="240.7344" width="8" x="39.2651" y="81.2969"/><line style="stroke:currentColor;stroke-width:0.5;stroke-dasharray:5,5;" x1="43" x2="43" y1="81.2969" y2="322.0313"/></g></g><g class="participant-lifeline" data-entity-uid="part2" data-qualified-name="Cache" data-source-line="7" id="part2-lifeline"><g><title>Cache</title><rect fill="currentColor" fill-opacity="0.00000" height="240.7344" width="8" x="154.665" y="81.2969"/><line style="stroke:currentColor;stroke-width:0.5;stroke-dasharray:5,5;" x1="157.896" x2="157.896" y1="81.2969" y2="322.0313"/></g></g><g class="participant-lifeline" data-entity-uid="part3" data-qualified-name="DB" data-source-line="8" id="part3-lifeline"><g><title>DB</title><rect fill="currentColor" fill-opacity="0.00000" height="240.7344" width="8" x="211.4341" y="81.2969"/><line style="stroke:currentColor;stroke-width:0.5;stroke-dasharray:5,5;" x1="215.4341" x2="215.4341" y1="81.2969" y2="322.0313"/></g></g><g class="participant participant-head" data-entity-uid="part1" data-qualified-name="Client" data-source-line="6" id="part1-head"><text fill="currentColor" font-family="sans-serif" font-size="14" lengthAdjust="spacing" textLength="40.5303" x="20" y="77.9951">Client</text><ellipse cx="43.2651" cy="13.5" fill="none" rx="8" ry="8" style="stroke:currentColor;stroke-width:0.5;"/><path d="M43.2651,21.5 L43.2651,48.5 M30.2651,29.5 L56.2651,29.5 M43.2651,48.5 L30.2651,63.5 M43.2651,48.5 L56.2651,63.5" fill="none" style="stroke:currentColor;stroke-width:0.5;"/></g><g class="participant participant-tail" data-entity-uid="part1" data-qualified-name="Client" data-source-line="6" id="part1-tail"><text fill="currentColor" font-family="sans-serif" font-size="14" lengthAdjust="spacing" textLength="40.5303" x="20" y="334.0264">Client</text><ellipse cx="43.2651" cy="345.8281" fill="none" rx="8" ry="8" style="stroke:currentColor;stroke-width:0.5;"/><path d="M43.2651,353.8281 L43.2651,380.8281 M30.2651,361.8281 L56.2651,361.8281 M43.2651,380.8281 L30.2651,395.8281 M43.2651,380.8281 L56.2651,395.8281" fill="none" style="stroke:currentColor;stroke-width:0.5;"/></g><g class="participant participant-head" data-entity-uid="part2" data-qualified-name="Cache" data-source-line="7" id="part2-head"><rect fill="none" height="30.2969" rx="2.5" ry="2.5" style="stroke:currentColor;stroke-width:0.5;" width="57.5381" x="129.896" y="50"/><text fill="currentColor" font-family="sans-serif" font-size="14" lengthAdjust="spacing" textLength="43.5381" x="136.896" y="69.9951">Cache</text></g><g class="participant participant-tail" data-entity-uid="part2" data-qualified-name="Cache" data-source-line="7" id="part2-tail"><rect fill="none" height="30.2969" rx="2.5" ry="2.5" style="stroke:currentColor;stroke-width:0.5;" width="57.5381" x="129.896" y="321.0313"/><text fill="currentColor" font-family="sans-serif" font-size="14" lengthAdjust="spacing" textLength="43.5381" x="136.896" y="341.0264">Cache</text></g><g class="participant participant-head" data-entity-uid="part3" data-qualified-name="DB" data-source-line="8" id="part3-head"><text fill="currentColor" font-family="sans-serif" font-size="14" lengthAdjust="spacing" textLength="20.3848" x="202.2417" y="77.9951">DB</text><path d="M197.4341,29 C197.4341,19 215.4341,19 215.4341,19 C215.4341,19 233.4341,19 233.4341,29 L233.4341,55 C233.4341,65 215.4341,65 215.4341,65 C215.4341,65 197.4341,65 197.4341,55 L197.4341,29" fill="none" style="stroke:currentColor;stroke-width:0.5;"/><path d="M197.4341,29 C197.4341,39 215.4341,39 215.4341,39 C215.4341,39 233.4341,39 233.4341,29" fill="none" style="stroke:currentColor;stroke-width:0.5;"/></g><g class="participant participant-tail" data-entity-uid="part3" data-qualified-name="DB" data-source-line="8" id="part3-tail"><text fill="currentColor" font-family="sans-serif" font-size="14" lengthAdjust="spacing" textLength="20.3848" x="202.2417" y="334.0264">DB</text><path d="M197.4341,347.3281 C197.4341,337.3281 215.4341,337.3281 215.4341,337.3281 C215.4341,337.3281 233.4341,337.3281 233.4341,347.3281 L233.4341,373.3281 C233.4341,383.3281 215.4341,383.3281 215.4341,383.3281 C215.4341,383.3281 197.4341,383.3281 197.4341,373.3281 L197.4341,347.3281" fill="none" style="stroke:currentColor;stroke-width:0.5;"/><path d="M197.4341,347.3281 C197.4341,357.3281 215.4341,357.3281 215.4341,357.3281 C215.4341,357.3281 233.4341,357.3281 233.4341,347.3281" fill="none" style="stroke:currentColor;stroke-width:0.5;"/></g><g class="message" data-entity-1="part1" data-entity-2="part2" data-source-line="9" id="msg1"><polygon fill="currentColor" points="146.665,108.4297,156.665,112.4297,146.665,116.4297,150.665,112.4297" style="stroke:currentColor;stroke-width:1;stroke-linejoin:miter;stroke-miterlimit:10;"/><line style="stroke:currentColor;stroke-width:1;" x1="43.2651" x2="152.665" y1="112.4297" y2="112.4297"/><text fill="currentColor" font-family="sans-serif" font-size="13" lengthAdjust="spacing" textLength="53.5806" x="50.2651" y="107.3638">GET key</text></g><path d="M10,127.4297 L74.4429,127.4297 L74.4429,134.5625 L64.4429,144.5625 L10,144.5625 L10,127.4297" fill="#EEEEEE" style="stroke:currentColor;stroke-width:1.5;"/><rect fill="none" height="177.6016" style="stroke:currentColor;stroke-width:1.5;" width="233.4341" x="10" y="127.4297"/><text fill="currentColor" font-family="sans-serif" font-size="13" font-weight="700" lengthAdjust="spacing" textLength="19.4429" x="25" y="140.4966">alt</text><text fill="currentColor" font-family="sans-serif" font-size="11" font-weight="700" lengthAdjust="spacing" textLength="66.4995" x="89.4429" y="139.6401">[cache hit]</text><g class="message" data-entity-1="part2" data-entity-2="part1" data-source-line="11" id="msg2"><polygon fill="currentColor" points="54.2651,161.6953,44.2651,165.6953,54.2651,169.6953,50.2651,165.6953" style="stroke:currentColor;stroke-width:1;stroke-linejoin:miter;stroke-miterlimit:10;"/><line style="stroke:currentColor;stroke-width:1;stroke-dasharray:2,2;" x1="48.2651" x2="157.665" y1="165.6953" y2="165.6953"/><text fill="currentColor" font-family="sans-serif" font-size="13" lengthAdjust="spacing" textLength="35.5088" x="60.2651" y="160.6294">value</text></g><line style="stroke:currentColor;stroke-width:1;stroke-dasharray:2,2;" x1="10" x2="243.4341" y1="174.6953" y2="174.6953"/><text fill="currentColor" font-family="sans-serif" font-size="11" font-weight="700" lengthAdjust="spacing" textLength="77.9668" x="15" y="184.9058">[cache miss]</text><g class="message" data-entity-1="part2" data-entity-2="part1" data-source-line="13" id="msg3"><polygon fill="currentColor" points="54.2651,205.6328,44.2651,209.6328,54.2651,213.6328,50.2651,209.6328" style="stroke:currentColor;stroke-width:1;stroke-linejoin:miter;stroke-miterlimit:10;"/><line style="stroke:currentColor;stroke-width:1;stroke-dasharray:2,2;" x1="48.2651" x2="157.665" y1="209.6328" y2="209.6328"/><text fill="currentColor" font-family="sans-serif" font-size="13" lengthAdjust="spacing" textLength="33.8457" x="60.2651" y="204.5669">(null)</text></g><g class="message" data-entity-1="part1" data-entity-2="part3" data-source-line="14" id="msg4"><polygon fill="currentColor" points="203.4341,234.7656,213.4341,238.7656,203.4341,242.7656,207.4341,238.7656" style="stroke:currentColor;stroke-width:1;stroke-linejoin:miter;stroke-miterlimit:10;"/><line style="stroke:currentColor;stroke-width:1;" x1="43.2651" x2="209.4341" y1="238.7656" y2="238.7656"/><text fill="currentColor" font-family="sans-serif" font-size="13" lengthAdjust="spacing" textLength="56.9131" x="50.2651" y="233.6997">read key</text></g><g class="message" data-entity-1="part3" data-entity-2="part1" data-source-line="15" id="msg5"><polygon fill="currentColor" points="54.2651,263.8984,44.2651,267.8984,54.2651,271.8984,50.2651,267.8984" style="stroke:currentColor;stroke-width:1;stroke-linejoin:miter;stroke-miterlimit:10;"/><line style="stroke:currentColor;stroke-width:1;stroke-dasharray:2,2;" x1="48.2651" x2="214.4341" y1="267.8984" y2="267.8984"/><text fill="currentColor" font-family="sans-serif" font-size="13" lengthAdjust="spacing" textLength="35.5088" x="60.2651" y="262.8325">value</text></g><g class="message" data-entity-1="part1" data-entity-2="part2" data-source-line="16" id="msg6"><polygon fill="currentColor" points="146.665,293.0313,156.665,297.0313,146.665,301.0313,150.665,297.0313" style="stroke:currentColor;stroke-width:1;stroke-linejoin:miter;stroke-miterlimit:10;"/><line style="stroke:currentColor;stroke-width:1;" x1="43.2651" x2="152.665" y1="297.0313" y2="297.0313"/><text fill="currentColor" font-family="sans-serif" font-size="13" lengthAdjust="spacing" textLength="91.3999" x="50.2651" y="291.9653">SET key value</text></g><?plantuml-src ROuz3i8m38Ltd-ADCFG26HZQ8Wu05p29fKQOKAKk4hUdQG0nTBJVztxOsoEZqoZ9QEHiqSUHaw5ZFmW5Dhxo9EXRgX2QGzKSJiSBRl8YLeClBmpH25L6Ky3Lul1adOL4bw0AtkCqRPAxDAlkY_Hhwrk7B1pMBYpdHlG__rbthkk-tIcy0G00?></g></svg>